<?xml version="1.0" encoding="utf-8"?>
<!-- Generator: Adobe Illustrator 28.1.0, SVG Export Plug-In . SVG Version: 6.00 Build 0)  -->
<svg version="1.1" id="Layer_1" xmlns="http://www.w3.org/2000/svg" xmlns:xlink="http://www.w3.org/1999/xlink" x="0px" y="0px"
	 viewBox="0 0 800 300" style="enable-background:new 0 0 800 300;" xml:space="preserve">
<style type="text/css">
  path, polygon, polyline, rect, circle, ellipse { fill:#FFFFFF; }
  .st1, .st2, .st3, .st8, .st9, .st10 { fill:none !important; stroke:#FFFFFF; }
</style>

<style type="text/css">
	.st0{fill:#FFFFFF;}
	.st1{fill:none;stroke:#FFFFFF;stroke-width:0.5;stroke-miterlimit:10;}
	.st2{fill:none;stroke:#FFFFFF;stroke-width:0.5;stroke-miterlimit:10;}
	.st3{fill:none;stroke:#FFFFFF;stroke-width:0.5;stroke-linecap:round;stroke-miterlimit:10;}
	.st4{fill:#FFFFFF;}
	.st5{fill:#FFFFFF;}
	.st6{display:none;}
	.st7{display:inline;}
	.st8{display:inline;fill:none;stroke:#FFFFFF;stroke-width:0.5;stroke-miterlimit:10;}
	.st9{display:inline;fill:none;stroke:#FFFFFF;stroke-width:0.5;stroke-miterlimit:10;}
	.st10{display:inline;fill:none;stroke:#FFFFFF;stroke-width:0.5;stroke-linecap:round;stroke-miterlimit:10;}
	.st11{fill:#FFFFFF;}
</style>
<g>
	<g>
		<path d="M185.51,127.3c7.4-23.68,27.88-39.18,54.34-39.18c25.59,0,47.2,14.65,53.68,36.49h19.54
			c-6.68-32.23-37.25-55.04-73.62-55.04c-35.25,0-62.99,21.26-72.63,52.82C173.38,122.99,179.68,124.7,185.51,127.3z"/>
	</g>
	<g>
		<path d="M234.42,148.03v17.96h60.41c-5.45,24.63-27.2,41.04-54.98,41.04c-10.39,0-19.77-2.3-27.81-6.45
			c-2.7,5.77-6.33,10.93-10.81,15.31c11.15,6.2,24.22,9.7,38.61,9.7c43.66,0,74.68-32.09,75.62-77.56H234.42z"/>
	</g>
	<g>
		<path class="st5" d="M324.67,194.8c-0.39-0.25-0.81-0.43-1.24-0.59l11.94-38.51c0.19,0.04,0.38,0.07,0.57,0.08
			c1.78,0.07,3.28-1.32,3.35-3.1c0.07-1.78-1.32-3.28-3.1-3.35c-0.2-0.01-0.39,0.01-0.58,0.04l-8.39-37.01
			c0.67-0.17,1.33-0.39,1.96-0.72c4.23-2.23,5.85-7.47,3.63-11.7c-1.12-2.12-3.09-3.7-5.41-4.33c-2.12-0.57-4.35-0.32-6.29,0.7
			c-0.62,0.33-1.18,0.74-1.69,1.2l-25.8-27.88c0.13-0.14,0.25-0.29,0.36-0.46c0.95-1.51,0.5-3.5-1.01-4.45
			c-1.51-0.95-3.5-0.5-4.45,1.01c-0.11,0.17-0.19,0.34-0.26,0.52l-38.51-11.94c0.12-0.44,0.2-0.89,0.21-1.36
			c0.11-2.94-1.79-5.54-4.63-6.3c-0.45-0.12-0.92-0.19-1.4-0.21c-3.46-0.13-6.38,2.57-6.51,6.03c-0.02,0.47,0.03,0.92,0.11,1.37
			l-39.32,8.91c-0.06-0.18-0.13-0.36-0.22-0.54c-0.83-1.58-2.78-2.18-4.36-1.35c-1.58,0.83-2.18,2.78-1.35,4.36
			c0.09,0.18,0.2,0.33,0.32,0.48L164.8,91.41c-0.46-0.46-0.95-0.88-1.51-1.23c-0.74-0.46-1.53-0.81-2.36-1.04
			c-3.69-1-7.54,0.51-9.58,3.75c-1.23,1.96-1.63,4.28-1.12,6.53c0.51,2.26,1.87,4.18,3.83,5.41c0.55,0.34,1.13,0.6,1.74,0.82
			l-11.25,36.29c-0.19-0.04-0.38-0.07-0.57-0.08c-1.78-0.07-3.28,1.32-3.35,3.1c-0.07,1.78,1.32,3.28,3.1,3.35
			c0.2,0.01,0.39-0.01,0.58-0.04l8.91,39.32c-0.44,0.12-0.87,0.27-1.29,0.49c-1.48,0.78-2.57,2.09-3.07,3.69s-0.34,3.3,0.44,4.78
			c0.81,1.54,2.24,2.68,3.92,3.13c1.53,0.41,3.15,0.23,4.56-0.51c0.42-0.22,0.79-0.49,1.13-0.78L186.29,228
			c-0.13,0.14-0.25,0.29-0.36,0.46c-0.95,1.51-0.5,3.5,1.01,4.45c1.51,0.95,3.5,0.5,4.45-1.01c0.11-0.17,0.19-0.34,0.26-0.52
			l36.31,11.26c-0.17,0.62-0.29,1.27-0.31,1.93c-0.16,4.06,2.47,7.64,6.39,8.7c0.63,0.17,1.28,0.27,1.93,0.29
			c4.77,0.19,8.81-3.55,8.99-8.32c0.03-0.68-0.05-1.34-0.18-1.99l36.92-8.37c0.06,0.18,0.13,0.36,0.22,0.54
			c0.83,1.58,2.78,2.18,4.36,1.35c1.58-0.83,2.18-2.78,1.35-4.36c-0.09-0.17-0.2-0.33-0.32-0.48l29.59-27.38
			c0.32,0.32,0.67,0.61,1.07,0.86c0.53,0.34,1.11,0.59,1.71,0.75c2.67,0.72,5.47-0.37,6.94-2.71
			C328.48,200.53,327.6,196.65,324.67,194.8z M283.27,231.07c-0.53,0.28-0.93,0.69-1.22,1.16l-9.85-5.11
			c0.08-0.26,0.05-0.54-0.03-0.82l13.44-7.08c0.18,0.23,0.39,0.4,0.65,0.49l-1.36,11C284.35,230.69,283.79,230.79,283.27,231.07z
			 M229.14,242.46c0.16-0.46,0.35-0.9,0.59-1.31l3.64,2.29c-0.05,0.09-0.09,0.19-0.13,0.29L229.14,242.46z M190.38,227.45
			c-0.5-0.32-1.06-0.46-1.61-0.48l-0.5-11.09c0.26-0.07,0.49-0.22,0.69-0.43l12.85,8.1c-0.11,0.27-0.16,0.55-0.1,0.83l-10.2,4.32
			C191.26,228.21,190.88,227.77,190.38,227.45z M147.07,145.2c0.02-0.59-0.12-1.13-0.38-1.62l9.36-5.98
			c0.19,0.19,0.43,0.31,0.71,0.37l-0.59,15.18c-0.29,0.04-0.56,0.14-0.77,0.33l-8.84-6.67C146.85,146.34,147.04,145.8,147.07,145.2z
			 M196.64,66.57c0.53-0.28,0.93-0.68,1.22-1.15l9.85,5.11c-0.08,0.26-0.05,0.54,0.03,0.81l-13.44,7.08
			c-0.17-0.23-0.39-0.4-0.65-0.49l1.36-11C195.56,66.95,196.12,66.84,196.64,66.57z M249.07,54.65c-0.11,0.31-0.25,0.6-0.41,0.88
			l-2.12-1.34c0.05-0.09,0.09-0.19,0.13-0.29L249.07,54.65z M289.52,70.18c0.5,0.32,1.06,0.46,1.61,0.48l0.5,11.09
			c-0.26,0.07-0.49,0.23-0.69,0.43l-12.85-8.1c0.11-0.27,0.15-0.55,0.1-0.82l10.2-4.32C288.65,69.43,289.02,69.86,289.52,70.18z
			 M286.05,217.08c-0.62,0.32-0.87,1.03-0.68,1.67l-13.45,7.08c-0.42-0.53-1.16-0.72-1.78-0.39c-0.18,0.1-0.33,0.23-0.45,0.38
			l-15.05-7.8c0.09-0.34,0.07-0.71-0.11-1.04c-0.09-0.17-0.21-0.32-0.36-0.44l8.79-14.14c0.39,0.22,0.8,0.41,1.24,0.52
			c1.35,0.36,2.78,0.21,4.01-0.45c1.71-0.9,2.75-2.58,2.92-4.38l16.61,0.75c0.02,0.18,0.07,0.36,0.15,0.52
			c0.17,0.33,0.47,0.56,0.79,0.68l-2.09,16.86C286.42,216.93,286.23,216.98,286.05,217.08z M238.94,243.2
			c-0.21-0.33-0.48-0.63-0.8-0.86l2.35-3.78c0.99,0.65,1.8,1.53,2.4,2.56L238.94,243.2z M237.69,242.07
			c-0.41-0.21-0.86-0.34-1.35-0.36c-0.49-0.02-0.95,0.08-1.37,0.26l-2-3.85c1.1-0.54,2.32-0.85,3.63-0.8
			c0.59,0.02,1.15,0.11,1.7,0.26c0.62,0.17,1.19,0.43,1.73,0.74L237.69,242.07z M238.57,236.55c-0.63-0.17-1.28-0.27-1.93-0.29
			c-1.46-0.06-2.87,0.29-4.15,0.92l-10.22-19.7c0.11-0.09,0.22-0.19,0.3-0.32c0.22-0.35,0.27-0.75,0.17-1.12l14.83-6.28l14.32,7.42
			c-0.12,0.36-0.11,0.77,0.08,1.14c0.07,0.13,0.17,0.23,0.27,0.33l-11.66,18.76C239.96,237.05,239.29,236.74,238.57,236.55z
			 M203.89,222.87c-0.59-0.37-1.33-0.24-1.79,0.24l-12.86-8.11c0.25-0.63,0.05-1.36-0.55-1.74c-0.17-0.11-0.36-0.17-0.54-0.2
			l-0.77-16.94c0.33-0.09,0.64-0.29,0.84-0.61c0.1-0.17,0.17-0.34,0.2-0.53l19.08,0.62c0.05,0.96,0.55,1.88,1.42,2.43
			c0.87,0.55,1.92,0.6,2.81,0.23l8.79,16.95c-0.14,0.1-0.28,0.23-0.38,0.4c-0.2,0.32-0.25,0.69-0.19,1.03l-15.64,6.62
			C204.2,223.12,204.06,222.98,203.89,222.87z M161.09,193.58c-0.01-0.97-0.21-1.95-0.69-2.86c-0.47-0.89-1.16-1.62-1.97-2.19
			l13.22-20.68c0.14,0.05,0.27,0.1,0.43,0.1c0.41,0.02,0.78-0.14,1.05-0.41l12.86,9.71l0.73,16.1c-0.38,0.07-0.73,0.29-0.95,0.64
			c-0.08,0.12-0.11,0.26-0.15,0.39L161.09,193.58z M157.7,192.13c-0.23-0.43-0.54-0.78-0.91-1.06l1.35-2.12
			c0.72,0.51,1.35,1.17,1.78,2c0.44,0.83,0.63,1.72,0.64,2.6l-2.51-0.08C158.04,193.02,157.93,192.56,157.7,192.13z M157.79,154.61
			c0.03-0.7-0.45-1.27-1.11-1.43l0.59-15.19c0.67-0.1,1.2-0.64,1.23-1.34c0.01-0.2-0.03-0.39-0.09-0.56l14.29-9.14
			c0.25,0.24,0.57,0.4,0.94,0.42c0.2,0.01,0.38-0.03,0.56-0.09l7.84,14.66c-0.33,0.2-0.64,0.42-0.92,0.68
			c-1.08,1-1.71,2.37-1.77,3.84c-0.07,1.92,0.83,3.67,2.33,4.73l-8.95,14c-0.16-0.07-0.34-0.12-0.53-0.13
			c-0.38-0.01-0.73,0.13-0.99,0.36l-13.56-10.23C157.73,155.01,157.78,154.82,157.79,154.61z M161.32,99.25
			c0.26-0.41,0.41-0.86,0.46-1.31l4.44,0.2c-0.1,1.18-0.44,2.36-1.11,3.43c-0.7,1.11-1.63,1.97-2.7,2.56l-2.08-3.9
			C160.72,99.98,161.06,99.66,161.32,99.25z M166,102.12c0.76-1.21,1.16-2.56,1.27-3.94l22.06,1c0.03,0.14,0.05,0.29,0.12,0.42
			c0.19,0.37,0.52,0.61,0.9,0.71l-1.98,15.99l-13.59,8.69c-0.25-0.3-0.61-0.5-1.03-0.51c-0.15-0.01-0.28,0.03-0.42,0.07
			l-10.42-19.49C164.14,104.37,165.21,103.38,166,102.12z M193.85,80.56c0.62-0.32,0.87-1.03,0.68-1.67l13.45-7.08
			c0.42,0.53,1.16,0.72,1.78,0.39c0.18-0.1,0.33-0.22,0.45-0.37l15.05,7.8c-0.09,0.34-0.07,0.7,0.11,1.04
			c0.09,0.17,0.21,0.32,0.36,0.44l-10.11,16.26c-0.86-0.43-1.88-0.51-2.79-0.03c-0.91,0.48-1.43,1.36-1.56,2.31l-19.12-0.87
			c-0.02-0.18-0.07-0.36-0.15-0.52c-0.17-0.33-0.46-0.56-0.79-0.67l2.09-16.86C193.49,80.7,193.68,80.65,193.85,80.56z
			 M240.97,54.43c0.21,0.33,0.48,0.63,0.8,0.86l-1.33,2.15c-0.69-0.48-1.26-1.11-1.69-1.84L240.97,54.43z M242.22,55.57
			c0.41,0.21,0.86,0.34,1.35,0.36c0.49,0.02,0.95-0.08,1.37-0.26l1.16,2.23c-0.8,0.37-1.68,0.58-2.62,0.55
			c-0.44-0.02-0.87-0.08-1.28-0.19c-0.46-0.12-0.89-0.32-1.29-0.55L242.22,55.57z M242.05,58.76c0.45,0.12,0.92,0.19,1.4,0.21
			c1.01,0.04,1.99-0.19,2.88-0.61l11.3,21.79c-0.11,0.09-0.22,0.19-0.3,0.32c-0.22,0.35-0.27,0.75-0.17,1.12l-14.83,6.28
			l-14.32-7.43c0.12-0.36,0.11-0.77-0.08-1.14c-0.07-0.13-0.17-0.23-0.27-0.33l12.95-20.84C241.06,58.4,241.53,58.62,242.05,58.76z
			 M276.02,74.76c0.59,0.37,1.33,0.24,1.79-0.24l12.86,8.11c-0.25,0.63-0.05,1.36,0.55,1.74c0.17,0.11,0.36,0.17,0.54,0.2
			l0.77,16.94c-0.33,0.09-0.64,0.29-0.84,0.61c-0.1,0.17-0.17,0.34-0.2,0.53l-16.62-0.54c-0.01-0.38-0.05-0.76-0.13-1.14
			c-0.33-1.44-1.19-2.67-2.44-3.45c-0.47-0.3-0.98-0.52-1.51-0.66c-1.29-0.35-2.6-0.2-3.74,0.32l-7.65-14.76
			c0.14-0.1,0.28-0.23,0.38-0.4c0.2-0.32,0.25-0.69,0.19-1.03l15.64-6.63C275.71,74.52,275.85,74.66,276.02,74.76z M316.52,103.98
			c0,1.39,0.3,2.77,0.96,4.03c0.65,1.24,1.62,2.26,2.75,3.05l-11.98,18.74c-0.14-0.05-0.27-0.1-0.43-0.1
			c-0.41-0.02-0.78,0.14-1.05,0.41l-12.86-9.71l-0.73-16.1c0.38-0.07,0.73-0.29,0.95-0.64c0.08-0.12,0.11-0.26,0.15-0.39
			L316.52,103.98z M322.2,105.5c0.23,0.43,0.54,0.78,0.91,1.06l-2.32,3.62c-0.96-0.67-1.8-1.55-2.38-2.66
			c-0.59-1.12-0.84-2.32-0.84-3.51l4.27,0.14C321.86,104.61,321.97,105.07,322.2,105.5z M322.12,143.02
			c-0.03,0.7,0.46,1.27,1.11,1.43l-0.59,15.19c-0.67,0.1-1.2,0.64-1.23,1.34c-0.01,0.2,0.03,0.39,0.09,0.57l-14.29,9.14
			c-0.25-0.24-0.57-0.4-0.94-0.42c-0.2-0.01-0.38,0.03-0.56,0.09l-9-16.84c0.8-0.52,1.36-1.41,1.4-2.45
			c0.04-1.03-0.44-1.96-1.2-2.55l10.28-16.08c0.16,0.07,0.34,0.12,0.53,0.13c0.38,0.01,0.72-0.13,0.99-0.35l13.56,10.23
			C322.18,142.63,322.12,142.82,322.12,143.02z M318.6,194.47l-11.56-21.61c0.34-0.25,0.59-0.63,0.61-1.09
			c0.01-0.23-0.05-0.45-0.14-0.65l14.26-9.12c0.19,0.22,0.46,0.35,0.75,0.42l-1.22,31.43C320.36,193.85,319.44,194.06,318.6,194.47z
			 M321.28,194.37l-0.1,2.51c-0.4,0.02-0.78,0.1-1.15,0.26l-1.18-2.21C319.61,194.57,320.44,194.38,321.28,194.37z M288.5,197.43
			c-0.37,0.19-0.61,0.53-0.71,0.9l-16.65-0.75c0-0.87-0.18-1.74-0.61-2.56c-0.03-0.06-0.08-0.11-0.11-0.17l20.55-13.14l-1.93,15.57
			C288.85,197.29,288.67,197.34,288.5,197.43z M267.97,202.01c-1.16,0.61-2.46,0.72-3.63,0.4c-0.39-0.1-0.75-0.27-1.1-0.46
			l1.04-1.68c0.86,0.43,1.88,0.51,2.79,0.03c0.91-0.48,1.43-1.36,1.56-2.32l1.99,0.09C270.45,199.69,269.51,201.2,267.97,202.01z
			 M252.58,216.37c-0.17,0.09-0.31,0.21-0.43,0.35l-13.94-7.23l22.47-9.52c0.03,0.06,0.04,0.13,0.08,0.19
			c0.42,0.79,1.04,1.45,1.77,1.95l-8.81,14.17C253.35,216.16,252.94,216.18,252.58,216.37z M261.22,199.92
			c-0.03-0.05-0.04-0.1-0.06-0.15l1.77-0.75c0.22,0.42,0.53,0.74,0.89,1.01l-1.02,1.65C262.15,201.23,261.6,200.65,261.22,199.92z
			 M268.02,195.75c-0.9-1.15-2.47-1.58-3.81-0.88c-1.34,0.7-1.88,2.25-1.43,3.64l-1.82,0.77c-0.84-2.31,0.12-4.94,2.35-6.12
			c1.16-0.61,2.46-0.72,3.63-0.4c1.09,0.29,2.05,0.97,2.74,1.93L268.02,195.75z M268.68,197.46c-0.02-0.44-0.11-0.89-0.33-1.3
			l1.62-1.04c0.03,0.05,0.06,0.09,0.09,0.13c0.39,0.73,0.55,1.52,0.55,2.29L268.68,197.46z M270.12,194.41
			c-0.74-1.04-1.8-1.82-3.04-2.15c-1.35-0.36-2.78-0.21-4.01,0.45c-2.48,1.3-3.53,4.23-2.59,6.79l-22.88,9.69l-24.22-12.56
			c0.56-1.36,0.09-2.96-1.19-3.77c-1.28-0.81-2.93-0.54-3.91,0.55l-21.77-16.43l-1.12-24.82c2.71-0.26,4.9-2.47,5-5.26
			c0.1-2.59-1.58-4.87-4.08-5.55c-0.16-0.04-0.34-0.05-0.51-0.08l3.05-24.65l23.03-14.73c0.9,1.15,2.47,1.58,3.81,0.87
			c1.34-0.7,1.88-2.24,1.44-3.63l25.18-10.67l22.04,11.43c-1.14,2.48-0.32,5.48,2.05,6.97c0.47,0.3,0.98,0.52,1.51,0.66
			c2.12,0.57,4.31-0.15,5.68-1.81l19.81,14.95l1.23,27.26c-1.45,0.19-2.6,1.4-2.66,2.91c-0.06,1.51,0.99,2.81,2.43,3.11l-3.35,27.07
			L270.12,194.41z M222.54,215.56c-0.11-0.15-0.24-0.28-0.41-0.39c-0.35-0.22-0.76-0.26-1.13-0.17l-8.8-16.97
			c0.37-0.24,0.7-0.55,0.95-0.94l23.82,12.35L222.54,215.56z M188.4,194.46c-0.08-0.37-0.29-0.72-0.64-0.94
			c-0.16-0.1-0.34-0.16-0.51-0.2l-0.71-15.68l21.42,16.17c-0.25,0.4-0.39,0.83-0.44,1.27L188.4,194.46z M173.44,167.11
			c0.08-0.17,0.13-0.36,0.13-0.55c0.02-0.42-0.15-0.79-0.42-1.07l8.97-14.03c0.4,0.23,0.83,0.43,1.3,0.55
			c0.4,0.11,0.81,0.17,1.23,0.19c0.07,0,0.14-0.01,0.21-0.01l1.1,24.38L173.44,167.11z M182.29,142.4l0.91,1.71
			c-0.81,0.52-1.36,1.41-1.4,2.45c-0.04,1.03,0.44,1.96,1.2,2.55l-1.04,1.63c-1.32-0.95-2.16-2.51-2.09-4.25
			C179.94,144.74,180.9,143.24,182.29,142.4z M175.14,125.98c0.01-0.19-0.03-0.37-0.09-0.53l13.24-8.47l-3,24.21
			c-0.07-0.01-0.14-0.03-0.21-0.03c-0.91-0.04-1.78,0.17-2.57,0.55L174.65,127C174.93,126.75,175.12,126.39,175.14,125.98z
			 M185.07,141.68c0.06,0,0.11,0.02,0.16,0.02l-0.24,1.91c0,0,0,0,0,0c-0.47-0.02-0.92,0.08-1.32,0.25l-0.91-1.7
			C183.46,141.84,184.24,141.65,185.07,141.68z M187.94,146.79c0.06-1.51-0.99-2.81-2.42-3.11l0.24-1.9
			c0.14,0.03,0.29,0.03,0.43,0.07c2.2,0.59,3.78,2.65,3.69,5.02c-0.1,2.52-2.06,4.52-4.5,4.76l-0.09-1.92
			C186.73,149.51,187.88,148.31,187.94,146.79z M183.45,149.38c0.39,0.21,0.83,0.34,1.3,0.36c0,0,0,0,0,0l0.09,1.92
			c-0.06,0-0.11,0.01-0.16,0.01c-0.38-0.02-0.76-0.07-1.11-0.17c-0.41-0.11-0.79-0.29-1.15-0.49L183.45,149.38z M191.4,100.2
			c0.37-0.19,0.61-0.53,0.71-0.9l19.11,0.86c0.02,0.44,0.11,0.89,0.33,1.3c0,0,0,0,0,0l-22.61,14.46l1.93-15.58
			C191.05,100.34,191.23,100.29,191.4,100.2z M227.33,81.27c0.17-0.09,0.31-0.21,0.43-0.35l13.95,7.23l-24.72,10.47c0,0,0,0,0,0
			c-0.22-0.42-0.53-0.74-0.89-1.01l10.1-16.26C226.56,81.47,226.96,81.46,227.33,81.27z M257.37,82.08c0.11,0.15,0.24,0.28,0.4,0.39
			c0.35,0.22,0.76,0.26,1.13,0.17l7.66,14.77c-0.75,0.44-1.41,1.06-1.9,1.84c-0.04,0.06-0.06,0.12-0.09,0.18l-21.65-11.22
			L257.37,82.08z M291.5,103.17c0.08,0.37,0.29,0.72,0.64,0.94c0.16,0.1,0.34,0.16,0.51,0.2l0.71,15.68l-19.46-14.69
			c0.04-0.06,0.08-0.1,0.12-0.16c0.48-0.77,0.74-1.63,0.81-2.51L291.5,103.17z M273.58,104.85c-0.03,0.05-0.06,0.08-0.09,0.12
			l-1.54-1.16c0.25-0.4,0.39-0.83,0.44-1.27l1.92,0.06C274.24,103.38,274.02,104.15,273.58,104.85z M264.82,100.13l1.71,0.88
			c-0.56,1.36-0.09,2.96,1.19,3.77c1.28,0.81,2.93,0.54,3.91-0.55l1.54,1.17c-1.26,1.5-3.27,2.12-5.12,1.62
			c-0.47-0.13-0.93-0.33-1.36-0.6C264.54,105.07,263.8,102.37,264.82,100.13z M266.76,100.54l-1.71-0.89
			c0.03-0.05,0.04-0.09,0.07-0.14c0.44-0.7,1.03-1.25,1.7-1.64l0.89,1.73C267.34,99.84,267.01,100.15,266.76,100.54z M272.41,102.02
			c-0.05-0.96-0.55-1.88-1.42-2.43c-0.87-0.55-1.92-0.6-2.81-0.23l-0.89-1.71c1.04-0.47,2.23-0.59,3.36-0.29
			c0.47,0.13,0.93,0.33,1.36,0.6c1.48,0.93,2.29,2.5,2.33,4.13L272.41,102.02z M306.46,130.53c-0.08,0.17-0.13,0.35-0.13,0.55
			c-0.02,0.42,0.15,0.79,0.42,1.07l-10.3,16.11c-0.39-0.21-0.83-0.34-1.3-0.36l-1.21-26.82L306.46,130.53z M294.91,154.02
			C294.92,154.02,294.92,154.02,294.91,154.02c0.47,0.02,0.92-0.08,1.32-0.25l9.02,16.87c-0.29,0.25-0.48,0.61-0.49,1.02
			c-0.01,0.19,0.03,0.37,0.09,0.54l-13.24,8.46L294.91,154.02z M290.45,198.03c-0.19-0.37-0.52-0.61-0.89-0.71l1.98-15.99
			l13.59-8.69c0.25,0.29,0.61,0.49,1.03,0.51c0.15,0.01,0.28-0.03,0.42-0.07l11.56,21.61c-0.84,0.5-1.57,1.19-2.12,2.06
			c-0.55,0.88-0.83,1.84-0.91,2.8l-24.52-1.11C290.55,198.31,290.52,198.17,290.45,198.03z M316.46,197.04
			c0.5-0.8,1.17-1.42,1.93-1.87l1.19,2.23c-0.38,0.25-0.73,0.57-0.99,0.98c-0.26,0.41-0.41,0.86-0.46,1.31l-2.51-0.11
			C315.7,198.71,315.96,197.84,316.46,197.04z M321.71,196.91l0.1-2.53c0.32,0.03,0.65,0.08,0.96,0.16l-0.75,2.42
			C321.92,196.95,321.81,196.93,321.71,196.91z M321.83,193.86l1.22-31.42c0.67-0.1,1.21-0.64,1.24-1.34
			c0.01-0.22-0.04-0.43-0.13-0.63l9.35-5.98c0.35,0.46,0.82,0.82,1.36,1.04l-11.94,38.51C322.56,193.95,322.19,193.89,321.83,193.86
			z M332.84,152.43c-0.02,0.59,0.12,1.14,0.38,1.62l-9.36,5.98c-0.19-0.19-0.44-0.31-0.71-0.37l0.59-15.18
			c0.29-0.04,0.56-0.14,0.76-0.33l8.84,6.67C333.06,151.29,332.86,151.84,332.84,152.43z M322.57,142.03l-13.54-10.22
			c0.1-0.19,0.17-0.39,0.18-0.62c0.02-0.45-0.19-0.85-0.51-1.13l11.97-18.72c0.69,0.42,1.42,0.78,2.22,1
			c0.52,0.14,1.04,0.23,1.57,0.27l-1.13,29.07C323.04,141.73,322.78,141.84,322.57,142.03z M323.16,111.32
			c-0.68-0.18-1.32-0.49-1.93-0.86l2.31-3.61c0.35,0.18,0.73,0.3,1.12,0.35l-0.17,4.36C324.05,111.52,323.6,111.44,323.16,111.32z
			 M325.2,107.21c0.11,0,0.21-0.02,0.31-0.03l0.97,4.26c-0.48,0.09-0.97,0.13-1.45,0.12L325.2,107.21z M322.48,102.06l-3.64-2.29
			c0.27-0.4,0.57-0.77,0.91-1.12l2.93,3.17C322.62,101.9,322.55,101.98,322.48,102.06z M322.2,102.5c-0.18,0.35-0.3,0.73-0.35,1.13
			l-4.28-0.14c0.08-1.16,0.4-2.28,0.98-3.28L322.2,102.5z M316.53,103.46l-22.2-0.72c-0.05-0.42-0.25-0.82-0.64-1.07
			c-0.2-0.12-0.41-0.18-0.63-0.2l-0.77-16.91c0.28-0.06,0.53-0.22,0.73-0.44l24.65,15.54c-0.32,0.56-0.6,1.14-0.79,1.77
			C316.67,102.08,316.57,102.77,316.53,103.46z M275.39,73.88l-15.62,6.62c-0.11-0.18-0.25-0.35-0.45-0.47
			c-0.38-0.24-0.83-0.26-1.23-0.13L246.8,58.14c0.41-0.23,0.8-0.5,1.15-0.83c0.34-0.32,0.63-0.67,0.89-1.05l26.62,16.78
			C275.36,73.32,275.32,73.6,275.39,73.88z M246.56,57.67l-1.16-2.23c0.33-0.21,0.63-0.48,0.87-0.8l2.13,1.34
			C247.92,56.67,247.29,57.25,246.56,57.67z M240.73,53.97l-2.23,1.18c-0.14-0.29-0.25-0.6-0.34-0.91l2.46-0.56
			C240.65,53.77,240.69,53.87,240.73,53.97z M238.27,55.85c0.47,0.81,1.1,1.51,1.88,2.04l-12.93,20.8
			c-0.39-0.17-0.84-0.19-1.25,0.02c-0.2,0.11-0.36,0.26-0.48,0.44l-15.03-7.79c0.09-0.27,0.07-0.57-0.02-0.85L238.27,55.85z
			 M192.09,80.18c0.19,0.23,0.42,0.41,0.7,0.49L190.7,97.5c-0.22,0-0.43,0.04-0.64,0.15c-0.4,0.21-0.64,0.59-0.72,1l-22.03-1
			c0.01-0.69-0.03-1.38-0.19-2.07c-0.15-0.67-0.4-1.3-0.69-1.9L192.09,80.18z M166.26,97.61l-4.45-0.2c-0.01-0.4-0.1-0.78-0.26-1.15
			l3.94-2.08C166.01,95.25,166.27,96.42,166.26,97.61z M161.3,95.8c-0.06-0.09-0.12-0.17-0.18-0.26l3.26-3.02
			c0.33,0.38,0.61,0.78,0.86,1.2L161.3,95.8z M157.89,100.66c0.1,0.02,0.21,0.04,0.31,0.06l-0.17,4.36
			c-0.45-0.04-0.9-0.11-1.34-0.22c-0.03-0.01-0.06-0.02-0.09-0.03L157.89,100.66z M158.72,100.75c0.4-0.02,0.78-0.1,1.15-0.26
			l2.07,3.87c-1.06,0.5-2.21,0.76-3.39,0.74L158.72,100.75z M162.44,105.29l10.42,19.49c-0.34,0.25-0.59,0.63-0.61,1.09
			c-0.01,0.24,0.05,0.45,0.15,0.65l-14.26,9.12c-0.19-0.22-0.46-0.35-0.76-0.42l1.13-29.07
			C159.89,106.17,161.23,105.88,162.44,105.29z M157.33,155.61l13.54,10.22c-0.1,0.19-0.17,0.39-0.18,0.62
			c-0.02,0.45,0.19,0.85,0.51,1.13l-13.21,20.67c-0.47-0.28-0.97-0.51-1.51-0.66c-0.37-0.1-0.75-0.16-1.13-0.19l1.22-31.43
			C156.86,155.9,157.13,155.8,157.33,155.61z M156.35,188.09c0.48,0.13,0.93,0.34,1.36,0.59l-1.35,2.11
			c-0.35-0.18-0.73-0.3-1.12-0.35l0.1-2.52C155.68,187.94,156.02,188,156.35,188.09z M154.71,190.42c-0.11,0-0.21,0.02-0.31,0.03
			l-0.56-2.45c0.32-0.06,0.64-0.09,0.97-0.09L154.71,190.42z M157.42,195.57l2.12,1.34c-0.18,0.27-0.39,0.51-0.62,0.75l-1.71-1.84
			C157.29,195.73,157.36,195.65,157.42,195.57z M157.71,195.13c0.18-0.35,0.3-0.73,0.35-1.12l2.51,0.08
			c-0.07,0.84-0.31,1.65-0.73,2.39L157.71,195.13z M161.09,194.1l24.5,0.8c0.05,0.42,0.25,0.82,0.64,1.07
			c0.2,0.12,0.41,0.18,0.63,0.2l0.77,16.91c-0.28,0.06-0.53,0.22-0.73,0.44l-26.61-16.77C160.74,195.94,161.02,195.04,161.09,194.1z
			 M204.52,223.76l15.62-6.62c0.11,0.18,0.25,0.35,0.45,0.47c0.38,0.24,0.83,0.26,1.23,0.13l10.2,19.67
			c-0.56,0.32-1.11,0.69-1.6,1.15c-0.51,0.48-0.94,1.02-1.32,1.59l-24.66-15.55C204.55,224.32,204.59,224.03,204.52,223.76z
			 M232.5,238.34l2,3.86c-0.33,0.21-0.63,0.48-0.86,0.8l-3.64-2.3C230.64,239.73,231.49,238.92,232.5,238.34z M239.18,243.67
			l3.96-2.09c0.22,0.44,0.38,0.91,0.51,1.39l-4.36,0.99C239.25,243.86,239.22,243.76,239.18,243.67z M243.82,240.63
			c-0.68-1.19-1.62-2.21-2.78-2.96l11.64-18.72c0.39,0.17,0.84,0.19,1.25-0.02c0.2-0.11,0.36-0.26,0.48-0.44l15.03,7.79
			c-0.09,0.27-0.07,0.57,0.02,0.85L243.82,240.63z M287.82,217.46c-0.19-0.23-0.42-0.41-0.69-0.49l2.08-16.84
			c0.22,0,0.43-0.04,0.64-0.15c0.4-0.21,0.64-0.59,0.72-1l24.5,1.11c0,0.94,0.2,1.86,0.6,2.7L287.82,217.46z M315.59,200.11
			l2.51,0.11c0.01,0.4,0.1,0.78,0.26,1.15l-2.23,1.17C315.77,201.79,315.59,200.96,315.59,200.11z M318.61,201.84
			c0.06,0.09,0.12,0.17,0.18,0.26l-1.84,1.7c-0.21-0.25-0.4-0.51-0.56-0.79L318.61,201.84z M335.1,149.48
			c-0.56,0.18-1.05,0.5-1.43,0.93l-8.84-6.67c0.09-0.18,0.16-0.38,0.17-0.6c0.03-0.71-0.47-1.29-1.14-1.44l1.13-29.09
			c0.58,0.01,1.15-0.04,1.72-0.14L335.1,149.48z M321.6,97.24c1.77-0.93,3.74-1.1,5.53-0.61c1.97,0.53,3.72,1.85,4.75,3.8
			c1.96,3.72,0.53,8.32-3.19,10.28c-0.55,0.29-1.12,0.48-1.7,0.63l-0.97-4.26c0.18-0.06,0.36-0.13,0.54-0.22
			c1.58-0.83,2.18-2.78,1.35-4.36c-0.83-1.58-2.78-2.18-4.36-1.35c-0.17,0.09-0.33,0.2-0.48,0.32l-2.94-3.18
			C320.57,97.89,321.05,97.53,321.6,97.24z M319.04,97.88c-0.41,0.41-0.77,0.85-1.09,1.33L293.3,83.67
			c0.25-0.63,0.05-1.37-0.54-1.74c-0.19-0.12-0.39-0.18-0.6-0.2l-0.5-11.08c0.57-0.07,1.11-0.29,1.57-0.66L319.04,97.88z
			 M288.11,66.75c-0.13,0.57-0.09,1.16,0.09,1.7L278,72.78c-0.11-0.18-0.25-0.33-0.44-0.45c-0.6-0.38-1.36-0.24-1.82,0.27
			l-26.63-16.78c0.19-0.32,0.34-0.66,0.46-1.01L288.11,66.75z M237.95,52.48c0.12-3.17,2.8-5.65,5.97-5.52
			c0.44,0.02,0.87,0.08,1.28,0.19c2.53,0.68,4.35,3.04,4.24,5.77c-0.02,0.42-0.08,0.83-0.19,1.23l-2.41-0.75
			c0.04-0.19,0.07-0.38,0.08-0.57c0.07-1.78-1.32-3.28-3.1-3.35c-1.78-0.07-3.28,1.32-3.35,3.1c-0.01,0.2,0.01,0.39,0.04,0.58
			l-2.45,0.56C237.97,53.31,237.93,52.9,237.95,52.48z M237.64,54.34c0.1,0.36,0.22,0.71,0.38,1.05L210.2,70.04
			c-0.42-0.53-1.16-0.73-1.78-0.4c-0.19,0.1-0.35,0.25-0.47,0.41l-9.85-5.11c0.22-0.53,0.3-1.11,0.22-1.69L237.64,54.34z
			 M192.96,66.08c0.44,0.4,0.96,0.66,1.53,0.78l-1.36,10.99c-0.21,0.01-0.42,0.05-0.62,0.15c-0.63,0.33-0.88,1.06-0.67,1.71
			l-25.67,13.52c-0.29-0.51-0.63-0.99-1.02-1.43L192.96,66.08z M154.61,103.94c-3.56-2.24-4.62-6.94-2.38-10.5
			c1.83-2.9,5.28-4.14,8.42-3.29c0.72,0.19,1.42,0.5,2.08,0.91c0.49,0.31,0.92,0.67,1.31,1.06l-3.27,3.03
			c-0.14-0.13-0.29-0.25-0.46-0.36c-1.51-0.95-3.5-0.5-4.45,1.01c-0.95,1.51-0.5,3.5,1.01,4.45c0.17,0.11,0.34,0.19,0.52,0.26
			l-1.28,4.13C155.59,104.46,155.09,104.24,154.61,103.94z M156.42,105.87c0.52,0.14,1.05,0.22,1.57,0.26l-1.13,29.06
			c-0.67,0.1-1.21,0.64-1.24,1.34c-0.01,0.23,0.05,0.44,0.13,0.63l-9.35,5.98c-0.35-0.46-0.82-0.83-1.36-1.05l11.25-36.27
			C156.33,105.84,156.37,105.86,156.42,105.87z M144.81,148.15c0.56-0.18,1.04-0.5,1.43-0.92l8.84,6.67
			c-0.09,0.18-0.16,0.38-0.17,0.6c-0.03,0.71,0.47,1.29,1.14,1.44l-1.22,31.45c-0.37,0-0.74,0.03-1.1,0.1L144.81,148.15z
			 M157.53,198.72c-1.34,0.7-2.83,0.83-4.18,0.46c-1.49-0.4-2.81-1.4-3.59-2.87c-1.48-2.81-0.4-6.29,2.41-7.77
			c0.38-0.2,0.76-0.34,1.16-0.45l0.56,2.46c-0.18,0.06-0.36,0.13-0.54,0.22c-1.58,0.83-2.18,2.78-1.35,4.36
			c0.83,1.58,2.78,2.18,4.36,1.35c0.17-0.09,0.33-0.2,0.48-0.32l1.72,1.85C158.24,198.29,157.9,198.53,157.53,198.72z
			 M159.28,198.04c0.26-0.27,0.5-0.55,0.71-0.85l26.62,16.78c-0.25,0.63-0.05,1.37,0.54,1.74c0.19,0.12,0.39,0.18,0.6,0.2l0.5,11.08
			c-0.57,0.07-1.11,0.29-1.57,0.66L159.28,198.04z M191.8,230.88c0.13-0.57,0.09-1.16-0.09-1.7l10.2-4.32
			c0.11,0.17,0.25,0.33,0.44,0.45c0.6,0.38,1.36,0.24,1.82-0.27l24.67,15.55c-0.29,0.5-0.52,1.01-0.71,1.56L191.8,230.88z
			 M243.91,245.21c-0.16,4.2-3.7,7.47-7.9,7.31c-0.59-0.02-1.15-0.11-1.7-0.26c-3.35-0.9-5.75-4.03-5.61-7.64
			c0.02-0.57,0.12-1.13,0.26-1.66l4.11,1.27c-0.04,0.19-0.07,0.38-0.08,0.57c-0.07,1.78,1.32,3.28,3.1,3.35s3.28-1.32,3.35-3.1
			c0.01-0.2-0.01-0.39-0.04-0.58l4.35-0.99C243.86,244.05,243.93,244.62,243.91,245.21z M244.67,242.74
			c-0.15-0.57-0.33-1.13-0.59-1.66l25.62-13.49c0.42,0.53,1.16,0.73,1.78,0.4c0.19-0.1,0.35-0.25,0.47-0.41l9.85,5.11
			c-0.22,0.53-0.3,1.11-0.22,1.69L244.67,242.74z M286.95,231.55c-0.44-0.4-0.96-0.66-1.53-0.78l1.36-10.99
			c0.21-0.01,0.42-0.05,0.62-0.15c0.63-0.33,0.88-1.06,0.67-1.71l27.85-14.67c0.18,0.32,0.4,0.62,0.64,0.9L286.95,231.55z
			 M326.19,203.18c-1.38,2.19-3.99,3.13-6.36,2.49c-0.54-0.15-1.07-0.37-1.57-0.69c-0.36-0.23-0.68-0.49-0.97-0.77l1.85-1.72
			c0.14,0.13,0.29,0.25,0.46,0.36c1.51,0.95,3.5,0.5,4.45-1.01c0.95-1.51,0.5-3.5-1.01-4.45c-0.17-0.11-0.34-0.19-0.52-0.26
			l0.75-2.4c0.38,0.14,0.76,0.3,1.12,0.53C327.07,196.94,327.88,200.49,326.19,203.18z"/>
	</g>
	<g>
		<path d="M439.14,74.41c44.49,0,76.67,31.75,76.67,75.57c0,43.84-32.2,75.6-76.67,75.6h-50.41V74.41H439.14L439.14,74.41z
			 M496.46,149.99c0-33.45-24.01-57.81-57.92-57.81h-30.87v115.65h30.87C472.44,207.83,496.46,183.44,496.46,149.99z"/>
	</g>
	<g>
		<polygon class="st5" points="674.12,74.41 674.12,202.4 686.69,202.4 686.69,225.59 693.07,225.59 693.07,74.41 		"/>
	</g>
	<g>
		<path class="st5" d="M546.03,74.41h-17.69l-15.79,38.6c4.46,8.43,7.33,17.96,8.38,28.29l16.53-40.8l29.49,71.51h-48.53
			c-1.72,6.22-4.21,12.02-7.32,17.37h62.97l15,36.21h20.54L546.03,74.41z"/>
	</g>
	<g>
		<polygon points="615.16,207.83 615.16,74.41 596.21,74.41 596.21,178.7 615.93,225.59 681.58,225.59 681.58,207.83 		"/>
	</g>
	<g>
		<path d="M209.84,176.7c0,28.5-21.47,48.88-51.26,48.88c-30.17,0-51.65-20.41-51.65-48.88c0-13.75,5.65-29.84,15.79-47.78
			l28.76-50.88h19.56c-20,35.57-26.36,46.94-31.09,56.33c6.71-3.16,13.91-4.75,21-4.75C186.58,129.62,209.84,148.25,209.84,176.7z
			 M191.87,176.7c0-18.69-14.09-31.89-33.49-31.89s-33.49,13.39-33.49,31.89c0,18.29,14.1,31.91,33.49,31.91
			S191.87,195.2,191.87,176.7z"/>
	</g>
	<g>
		<path d="M323.49,148.03c-0.13,6.19-0.86,12.11-2.06,17.77h61.33v-17.77H323.49z"/>
	</g>
</g>
<g class="st6">
	<g class="st7">
		<path d="M185.51,127.3c7.4-23.68,27.88-39.18,54.34-39.18c25.59,0,47.2,14.65,53.68,36.49h19.54
			c-6.68-32.23-37.25-55.04-73.62-55.04c-35.25,0-62.99,21.26-72.63,52.82C173.38,122.99,179.68,124.7,185.51,127.3z"/>
	</g>
	<g class="st7">
		<path d="M234.42,148.03v17.96h60.41c-5.45,24.63-27.2,41.04-54.98,41.04c-10.39,0-19.77-2.3-27.81-6.45
			c-2.7,5.77-6.33,10.93-10.81,15.31c11.15,6.2,24.22,9.7,38.61,9.7c43.66,0,74.68-32.09,75.62-77.56H234.42z"/>
	</g>
	<g class="st7">
		<g>
			<path class="st5" d="M324.67,194.8c-0.39-0.25-0.81-0.43-1.24-0.59l11.94-38.51c0.19,0.04,0.38,0.07,0.57,0.08
				c1.78,0.07,3.28-1.32,3.35-3.1c0.07-1.78-1.32-3.28-3.1-3.35c-0.2-0.01-0.39,0.01-0.58,0.04l-8.39-37.01
				c0.67-0.17,1.33-0.39,1.96-0.72c4.23-2.23,5.85-7.47,3.63-11.7c-1.12-2.12-3.09-3.7-5.41-4.33c-2.12-0.57-4.35-0.32-6.29,0.7
				c-0.62,0.33-1.18,0.74-1.69,1.2l-25.8-27.88c0.13-0.14,0.25-0.29,0.36-0.46c0.95-1.51,0.5-3.5-1.01-4.45
				c-1.51-0.95-3.5-0.5-4.45,1.01c-0.11,0.17-0.19,0.34-0.26,0.52l-38.51-11.94c0.12-0.44,0.2-0.89,0.21-1.36
				c0.11-2.94-1.79-5.54-4.63-6.3c-0.45-0.12-0.92-0.19-1.4-0.21c-3.46-0.13-6.38,2.57-6.51,6.03c-0.02,0.47,0.03,0.92,0.11,1.37
				l-39.32,8.91c-0.06-0.18-0.13-0.36-0.22-0.54c-0.83-1.58-2.78-2.18-4.36-1.35c-1.58,0.83-2.18,2.78-1.35,4.36
				c0.09,0.18,0.2,0.33,0.32,0.48L164.8,91.41c-0.46-0.46-0.95-0.88-1.51-1.23c-0.74-0.46-1.53-0.81-2.36-1.04
				c-3.69-1-7.54,0.51-9.58,3.75c-1.23,1.96-1.63,4.28-1.12,6.53c0.51,2.26,1.87,4.18,3.83,5.41c0.55,0.34,1.13,0.6,1.74,0.82
				l-11.25,36.29c-0.19-0.04-0.38-0.07-0.57-0.08c-1.78-0.07-3.28,1.32-3.35,3.1c-0.07,1.78,1.32,3.28,3.1,3.35
				c0.2,0.01,0.39-0.01,0.58-0.04l8.91,39.32c-0.44,0.12-0.87,0.27-1.29,0.49c-1.48,0.78-2.57,2.09-3.07,3.69s-0.34,3.3,0.44,4.78
				c0.81,1.54,2.24,2.68,3.92,3.13c1.53,0.41,3.15,0.23,4.56-0.51c0.42-0.22,0.79-0.49,1.13-0.78L186.29,228
				c-0.13,0.14-0.25,0.29-0.36,0.46c-0.95,1.51-0.5,3.5,1.01,4.45c1.51,0.95,3.5,0.5,4.45-1.01c0.11-0.17,0.19-0.34,0.26-0.52
				l36.31,11.26c-0.17,0.62-0.29,1.27-0.31,1.93c-0.16,4.06,2.47,7.64,6.39,8.7c0.63,0.17,1.28,0.27,1.93,0.29
				c4.77,0.19,8.81-3.55,8.99-8.32c0.03-0.68-0.05-1.34-0.18-1.99l36.92-8.37c0.06,0.18,0.13,0.36,0.22,0.54
				c0.83,1.58,2.78,2.18,4.36,1.35c1.58-0.83,2.18-2.78,1.35-4.36c-0.09-0.17-0.2-0.33-0.32-0.48l29.59-27.38
				c0.32,0.32,0.67,0.61,1.07,0.86c0.53,0.34,1.11,0.59,1.71,0.75c2.67,0.72,5.47-0.37,6.94-2.71
				C328.48,200.53,327.6,196.65,324.67,194.8z M283.27,231.07c-0.53,0.28-0.93,0.69-1.22,1.16l-9.85-5.11
				c0.08-0.26,0.05-0.54-0.03-0.82l13.44-7.08c0.18,0.23,0.39,0.4,0.65,0.49l-1.36,11C284.35,230.69,283.79,230.79,283.27,231.07z
				 M229.14,242.46c0.16-0.46,0.35-0.9,0.59-1.31l3.64,2.29c-0.05,0.09-0.09,0.19-0.13,0.29L229.14,242.46z M190.38,227.45
				c-0.5-0.32-1.06-0.46-1.61-0.48l-0.5-11.09c0.26-0.07,0.49-0.22,0.69-0.43l12.85,8.1c-0.11,0.27-0.16,0.55-0.1,0.83l-10.2,4.32
				C191.26,228.21,190.88,227.77,190.38,227.45z M147.07,145.2c0.02-0.59-0.12-1.13-0.38-1.62l9.36-5.98
				c0.19,0.19,0.43,0.31,0.71,0.37l-0.59,15.18c-0.29,0.04-0.56,0.14-0.77,0.33l-8.84-6.67C146.85,146.34,147.04,145.8,147.07,145.2
				z M196.64,66.57c0.53-0.28,0.93-0.68,1.22-1.15l9.85,5.11c-0.08,0.26-0.05,0.54,0.03,0.81l-13.44,7.08
				c-0.17-0.23-0.39-0.4-0.65-0.49l1.36-11C195.56,66.95,196.12,66.84,196.64,66.57z M249.07,54.65c-0.11,0.31-0.25,0.6-0.41,0.88
				l-2.12-1.34c0.05-0.09,0.09-0.19,0.13-0.29L249.07,54.65z M289.52,70.18c0.5,0.32,1.06,0.46,1.61,0.48l0.5,11.09
				c-0.26,0.07-0.49,0.23-0.69,0.43l-12.85-8.1c0.11-0.27,0.15-0.55,0.1-0.82l10.2-4.32C288.65,69.43,289.02,69.86,289.52,70.18z
				 M286.05,217.08c-0.62,0.32-0.87,1.03-0.68,1.67l-13.45,7.08c-0.42-0.53-1.16-0.72-1.78-0.39c-0.18,0.1-0.33,0.23-0.45,0.38
				l-15.05-7.8c0.09-0.34,0.07-0.71-0.11-1.04c-0.09-0.17-0.21-0.32-0.36-0.44l8.79-14.14c0.39,0.22,0.8,0.41,1.24,0.52
				c1.35,0.36,2.78,0.21,4.01-0.45c1.71-0.9,2.75-2.58,2.92-4.38l16.61,0.75c0.02,0.18,0.07,0.36,0.15,0.52
				c0.17,0.33,0.47,0.56,0.79,0.68l-2.09,16.86C286.42,216.93,286.23,216.98,286.05,217.08z M238.94,243.2
				c-0.21-0.33-0.48-0.63-0.8-0.86l2.35-3.78c0.99,0.65,1.8,1.53,2.4,2.56L238.94,243.2z M237.69,242.07
				c-0.41-0.21-0.86-0.34-1.35-0.36c-0.49-0.02-0.95,0.08-1.37,0.26l-2-3.85c1.1-0.54,2.32-0.85,3.63-0.8
				c0.59,0.02,1.15,0.11,1.7,0.26c0.62,0.17,1.19,0.43,1.73,0.74L237.69,242.07z M238.57,236.55c-0.63-0.17-1.28-0.27-1.93-0.29
				c-1.46-0.06-2.87,0.29-4.15,0.92l-10.22-19.7c0.11-0.09,0.22-0.19,0.3-0.32c0.22-0.35,0.27-0.75,0.17-1.12l14.83-6.28l14.32,7.42
				c-0.12,0.36-0.11,0.77,0.08,1.14c0.07,0.13,0.17,0.23,0.27,0.33l-11.66,18.76C239.96,237.05,239.29,236.74,238.57,236.55z
				 M203.89,222.87c-0.59-0.37-1.33-0.24-1.79,0.24l-12.86-8.11c0.25-0.63,0.05-1.36-0.55-1.74c-0.17-0.11-0.36-0.17-0.54-0.2
				l-0.77-16.94c0.33-0.09,0.64-0.29,0.84-0.61c0.1-0.17,0.17-0.34,0.2-0.53l19.08,0.62c0.05,0.96,0.55,1.88,1.42,2.43
				c0.87,0.55,1.92,0.6,2.81,0.23l8.79,16.95c-0.14,0.1-0.28,0.23-0.38,0.4c-0.2,0.32-0.25,0.69-0.19,1.03l-15.64,6.62
				C204.2,223.12,204.06,222.98,203.89,222.87z M161.09,193.58c-0.01-0.97-0.21-1.95-0.69-2.86c-0.47-0.89-1.16-1.62-1.97-2.19
				l13.22-20.68c0.14,0.05,0.27,0.1,0.43,0.1c0.41,0.02,0.78-0.14,1.05-0.41l12.86,9.71l0.73,16.1c-0.38,0.07-0.73,0.29-0.95,0.64
				c-0.08,0.12-0.11,0.26-0.15,0.39L161.09,193.58z M157.7,192.13c-0.23-0.43-0.54-0.78-0.91-1.06l1.35-2.12
				c0.72,0.51,1.35,1.17,1.78,2c0.44,0.83,0.63,1.72,0.64,2.6l-2.51-0.08C158.04,193.02,157.93,192.56,157.7,192.13z M157.79,154.61
				c0.03-0.7-0.45-1.27-1.11-1.43l0.59-15.19c0.67-0.1,1.2-0.64,1.23-1.34c0.01-0.2-0.03-0.39-0.09-0.56l14.29-9.14
				c0.25,0.24,0.57,0.4,0.94,0.42c0.2,0.01,0.38-0.03,0.56-0.09l7.84,14.66c-0.33,0.2-0.64,0.42-0.92,0.68
				c-1.08,1-1.71,2.37-1.77,3.84c-0.07,1.92,0.83,3.67,2.33,4.73l-8.95,14c-0.16-0.07-0.34-0.12-0.53-0.13
				c-0.38-0.01-0.73,0.13-0.99,0.36l-13.56-10.23C157.73,155.01,157.78,154.82,157.79,154.61z M161.32,99.25
				c0.26-0.41,0.41-0.86,0.46-1.31l4.44,0.2c-0.1,1.18-0.44,2.36-1.11,3.43c-0.7,1.11-1.63,1.97-2.7,2.56l-2.08-3.9
				C160.72,99.98,161.06,99.66,161.32,99.25z M166,102.12c0.76-1.21,1.16-2.56,1.27-3.94l22.06,1c0.03,0.14,0.05,0.29,0.12,0.42
				c0.19,0.37,0.52,0.61,0.9,0.71l-1.98,15.99l-13.59,8.69c-0.25-0.3-0.61-0.5-1.03-0.51c-0.15-0.01-0.28,0.03-0.42,0.07
				l-10.42-19.49C164.14,104.37,165.21,103.38,166,102.12z M193.85,80.56c0.62-0.32,0.87-1.03,0.68-1.67l13.45-7.08
				c0.42,0.53,1.16,0.72,1.78,0.39c0.18-0.1,0.33-0.22,0.45-0.37l15.05,7.8c-0.09,0.34-0.07,0.7,0.11,1.04
				c0.09,0.17,0.21,0.32,0.36,0.44l-10.11,16.26c-0.86-0.43-1.88-0.51-2.79-0.03c-0.91,0.48-1.43,1.36-1.56,2.31l-19.12-0.87
				c-0.02-0.18-0.07-0.36-0.15-0.52c-0.17-0.33-0.46-0.56-0.79-0.67l2.09-16.86C193.49,80.7,193.68,80.65,193.85,80.56z
				 M240.97,54.43c0.21,0.33,0.48,0.63,0.8,0.86l-1.33,2.15c-0.69-0.48-1.26-1.11-1.69-1.84L240.97,54.43z M242.22,55.57
				c0.41,0.21,0.86,0.34,1.35,0.36c0.49,0.02,0.95-0.08,1.37-0.26l1.16,2.23c-0.8,0.37-1.68,0.58-2.62,0.55
				c-0.44-0.02-0.87-0.08-1.28-0.19c-0.46-0.12-0.89-0.32-1.29-0.55L242.22,55.57z M242.05,58.76c0.45,0.12,0.92,0.19,1.4,0.21
				c1.01,0.04,1.99-0.19,2.88-0.61l11.3,21.79c-0.11,0.09-0.22,0.19-0.3,0.32c-0.22,0.35-0.27,0.75-0.17,1.12l-14.83,6.28
				l-14.32-7.43c0.12-0.36,0.11-0.77-0.08-1.14c-0.07-0.13-0.17-0.23-0.27-0.33l12.95-20.84C241.06,58.4,241.53,58.62,242.05,58.76z
				 M276.02,74.76c0.59,0.37,1.33,0.24,1.79-0.24l12.86,8.11c-0.25,0.63-0.05,1.36,0.55,1.74c0.17,0.11,0.36,0.17,0.54,0.2
				l0.77,16.94c-0.33,0.09-0.64,0.29-0.84,0.61c-0.1,0.17-0.17,0.34-0.2,0.53l-16.62-0.54c-0.01-0.38-0.05-0.76-0.13-1.14
				c-0.33-1.44-1.19-2.67-2.44-3.45c-0.47-0.3-0.98-0.52-1.51-0.66c-1.29-0.35-2.6-0.2-3.74,0.32l-7.65-14.76
				c0.14-0.1,0.28-0.23,0.38-0.4c0.2-0.32,0.25-0.69,0.19-1.03l15.64-6.63C275.71,74.52,275.85,74.66,276.02,74.76z M316.52,103.98
				c0,1.39,0.3,2.77,0.96,4.03c0.65,1.24,1.62,2.26,2.75,3.05l-11.98,18.74c-0.14-0.05-0.27-0.1-0.43-0.1
				c-0.41-0.02-0.78,0.14-1.05,0.41l-12.86-9.71l-0.73-16.1c0.38-0.07,0.73-0.29,0.95-0.64c0.08-0.12,0.11-0.26,0.15-0.39
				L316.52,103.98z M322.2,105.5c0.23,0.43,0.54,0.78,0.91,1.06l-2.32,3.62c-0.96-0.67-1.8-1.55-2.38-2.66
				c-0.59-1.12-0.84-2.32-0.84-3.51l4.27,0.14C321.86,104.61,321.97,105.07,322.2,105.5z M322.12,143.02
				c-0.03,0.7,0.46,1.27,1.11,1.43l-0.59,15.19c-0.67,0.1-1.2,0.64-1.23,1.34c-0.01,0.2,0.03,0.39,0.09,0.57l-14.29,9.14
				c-0.25-0.24-0.57-0.4-0.94-0.42c-0.2-0.01-0.38,0.03-0.56,0.09l-9-16.84c0.8-0.52,1.36-1.41,1.4-2.45
				c0.04-1.03-0.44-1.96-1.2-2.55l10.28-16.08c0.16,0.07,0.34,0.12,0.53,0.13c0.38,0.01,0.72-0.13,0.99-0.35l13.56,10.23
				C322.18,142.63,322.12,142.82,322.12,143.02z M318.6,194.47l-11.56-21.61c0.34-0.25,0.59-0.63,0.61-1.09
				c0.01-0.23-0.05-0.45-0.14-0.65l14.26-9.12c0.19,0.22,0.46,0.35,0.75,0.42l-1.22,31.43C320.36,193.85,319.44,194.06,318.6,194.47
				z M321.28,194.37l-0.1,2.51c-0.4,0.02-0.78,0.1-1.15,0.26l-1.18-2.21C319.61,194.57,320.44,194.38,321.28,194.37z M288.5,197.43
				c-0.37,0.19-0.61,0.53-0.71,0.9l-16.65-0.75c0-0.87-0.18-1.74-0.61-2.56c-0.03-0.06-0.08-0.11-0.11-0.17l20.55-13.14l-1.93,15.57
				C288.85,197.29,288.67,197.34,288.5,197.43z M267.97,202.01c-1.16,0.61-2.46,0.72-3.63,0.4c-0.39-0.1-0.75-0.27-1.1-0.46
				l1.04-1.68c0.86,0.43,1.88,0.51,2.79,0.03c0.91-0.48,1.43-1.36,1.56-2.32l1.99,0.09C270.45,199.69,269.51,201.2,267.97,202.01z
				 M252.58,216.37c-0.17,0.09-0.31,0.21-0.43,0.35l-13.94-7.23l22.47-9.52c0.03,0.06,0.04,0.13,0.08,0.19
				c0.42,0.79,1.04,1.45,1.77,1.95l-8.81,14.17C253.35,216.16,252.94,216.18,252.58,216.37z M261.22,199.92
				c-0.03-0.05-0.04-0.1-0.06-0.15l1.77-0.75c0.22,0.42,0.53,0.74,0.89,1.01l-1.02,1.65C262.15,201.23,261.6,200.65,261.22,199.92z
				 M268.02,195.75c-0.9-1.15-2.47-1.58-3.81-0.88c-1.34,0.7-1.88,2.25-1.43,3.64l-1.82,0.77c-0.84-2.31,0.12-4.94,2.35-6.12
				c1.16-0.61,2.46-0.72,3.63-0.4c1.09,0.29,2.05,0.97,2.74,1.93L268.02,195.75z M268.68,197.46c-0.02-0.44-0.11-0.89-0.33-1.3
				l1.62-1.04c0.03,0.05,0.06,0.09,0.09,0.13c0.39,0.73,0.55,1.52,0.55,2.29L268.68,197.46z M270.12,194.41
				c-0.74-1.04-1.8-1.82-3.04-2.15c-1.35-0.36-2.78-0.21-4.01,0.45c-2.48,1.3-3.53,4.23-2.59,6.79l-22.88,9.69l-24.22-12.56
				c0.56-1.36,0.09-2.96-1.19-3.77c-1.28-0.81-2.93-0.54-3.91,0.55l-21.77-16.43l-1.12-24.82c2.71-0.26,4.9-2.47,5-5.26
				c0.1-2.59-1.58-4.87-4.08-5.55c-0.16-0.04-0.34-0.05-0.51-0.08l3.05-24.65l23.03-14.73c0.9,1.15,2.47,1.58,3.81,0.87
				c1.34-0.7,1.88-2.24,1.44-3.63l25.18-10.67l22.04,11.43c-1.14,2.48-0.32,5.48,2.05,6.97c0.47,0.3,0.98,0.52,1.51,0.66
				c2.12,0.57,4.31-0.15,5.68-1.81l19.81,14.95l1.23,27.26c-1.45,0.19-2.6,1.4-2.66,2.91c-0.06,1.51,0.99,2.81,2.43,3.11
				l-3.35,27.07L270.12,194.41z M222.54,215.56c-0.11-0.15-0.24-0.28-0.41-0.39c-0.35-0.22-0.76-0.26-1.13-0.17l-8.8-16.97
				c0.37-0.24,0.7-0.55,0.95-0.94l23.82,12.35L222.54,215.56z M188.4,194.46c-0.08-0.37-0.29-0.72-0.64-0.94
				c-0.16-0.1-0.34-0.16-0.51-0.2l-0.71-15.68l21.42,16.17c-0.25,0.4-0.39,0.83-0.44,1.27L188.4,194.46z M173.44,167.11
				c0.08-0.17,0.13-0.36,0.13-0.55c0.02-0.42-0.15-0.79-0.42-1.07l8.97-14.03c0.4,0.23,0.83,0.43,1.3,0.55
				c0.4,0.11,0.81,0.17,1.23,0.19c0.07,0,0.14-0.01,0.21-0.01l1.1,24.38L173.44,167.11z M182.29,142.4l0.91,1.71
				c-0.81,0.52-1.36,1.41-1.4,2.45c-0.04,1.03,0.44,1.96,1.2,2.55l-1.04,1.63c-1.32-0.95-2.16-2.51-2.09-4.25
				C179.94,144.74,180.9,143.24,182.29,142.4z M175.14,125.98c0.01-0.19-0.03-0.37-0.09-0.53l13.24-8.47l-3,24.21
				c-0.07-0.01-0.14-0.03-0.21-0.03c-0.91-0.04-1.78,0.17-2.57,0.55L174.65,127C174.93,126.75,175.12,126.39,175.14,125.98z
				 M185.07,141.68c0.06,0,0.11,0.02,0.16,0.02l-0.24,1.91c0,0,0,0,0,0c-0.47-0.02-0.92,0.08-1.32,0.25l-0.91-1.7
				C183.46,141.84,184.24,141.65,185.07,141.68z M187.94,146.79c0.06-1.51-0.99-2.81-2.42-3.11l0.24-1.9
				c0.14,0.03,0.29,0.03,0.43,0.07c2.2,0.59,3.78,2.65,3.69,5.02c-0.1,2.52-2.06,4.52-4.5,4.76l-0.09-1.92
				C186.73,149.51,187.88,148.31,187.94,146.79z M183.45,149.38c0.39,0.21,0.83,0.34,1.3,0.36c0,0,0,0,0,0l0.09,1.92
				c-0.06,0-0.11,0.01-0.16,0.01c-0.38-0.02-0.76-0.07-1.11-0.17c-0.41-0.11-0.79-0.29-1.15-0.49L183.45,149.38z M191.4,100.2
				c0.37-0.19,0.61-0.53,0.71-0.9l19.11,0.86c0.02,0.44,0.11,0.89,0.33,1.3c0,0,0,0,0,0l-22.61,14.46l1.93-15.58
				C191.05,100.34,191.23,100.29,191.4,100.2z M227.33,81.27c0.17-0.09,0.31-0.21,0.43-0.35l13.95,7.23l-24.72,10.47c0,0,0,0,0,0
				c-0.22-0.42-0.53-0.74-0.89-1.01l10.1-16.26C226.56,81.47,226.96,81.46,227.33,81.27z M257.37,82.08
				c0.11,0.15,0.24,0.28,0.4,0.39c0.35,0.22,0.76,0.26,1.13,0.17l7.66,14.77c-0.75,0.44-1.41,1.06-1.9,1.84
				c-0.04,0.06-0.06,0.12-0.09,0.18l-21.65-11.22L257.37,82.08z M291.5,103.17c0.08,0.37,0.29,0.72,0.64,0.94
				c0.16,0.1,0.34,0.16,0.51,0.2l0.71,15.68l-19.46-14.69c0.04-0.06,0.08-0.1,0.12-0.16c0.48-0.77,0.74-1.63,0.81-2.51L291.5,103.17
				z M273.58,104.85c-0.03,0.05-0.06,0.08-0.09,0.12l-1.54-1.16c0.25-0.4,0.39-0.83,0.44-1.27l1.92,0.06
				C274.24,103.38,274.02,104.15,273.58,104.85z M264.82,100.13l1.71,0.88c-0.56,1.36-0.09,2.96,1.19,3.77
				c1.28,0.81,2.93,0.54,3.91-0.55l1.54,1.17c-1.26,1.5-3.27,2.12-5.12,1.62c-0.47-0.13-0.93-0.33-1.36-0.6
				C264.54,105.07,263.8,102.37,264.82,100.13z M266.76,100.54l-1.71-0.89c0.03-0.05,0.04-0.09,0.07-0.14
				c0.44-0.7,1.03-1.25,1.7-1.64l0.89,1.73C267.34,99.84,267.01,100.15,266.76,100.54z M272.41,102.02
				c-0.05-0.96-0.55-1.88-1.42-2.43c-0.87-0.55-1.92-0.6-2.81-0.23l-0.89-1.71c1.04-0.47,2.23-0.59,3.36-0.29
				c0.47,0.13,0.93,0.33,1.36,0.6c1.48,0.93,2.29,2.5,2.33,4.13L272.41,102.02z M306.46,130.53c-0.08,0.17-0.13,0.35-0.13,0.55
				c-0.02,0.42,0.15,0.79,0.42,1.07l-10.3,16.11c-0.39-0.21-0.83-0.34-1.3-0.36l-1.21-26.82L306.46,130.53z M294.91,154.02
				C294.92,154.02,294.92,154.02,294.91,154.02c0.47,0.02,0.92-0.08,1.32-0.25l9.02,16.87c-0.29,0.25-0.48,0.61-0.49,1.02
				c-0.01,0.19,0.03,0.37,0.09,0.54l-13.24,8.46L294.91,154.02z M290.45,198.03c-0.19-0.37-0.52-0.61-0.89-0.71l1.98-15.99
				l13.59-8.69c0.25,0.29,0.61,0.49,1.03,0.51c0.15,0.01,0.28-0.03,0.42-0.07l11.56,21.61c-0.84,0.5-1.57,1.19-2.12,2.06
				c-0.55,0.88-0.83,1.84-0.91,2.8l-24.52-1.11C290.55,198.31,290.52,198.17,290.45,198.03z M316.46,197.04
				c0.5-0.8,1.17-1.42,1.93-1.87l1.19,2.23c-0.38,0.25-0.73,0.57-0.99,0.98c-0.26,0.41-0.41,0.86-0.46,1.31l-2.51-0.11
				C315.7,198.71,315.96,197.84,316.46,197.04z M321.71,196.91l0.1-2.53c0.32,0.03,0.65,0.08,0.96,0.16l-0.75,2.42
				C321.92,196.95,321.81,196.93,321.71,196.91z M321.83,193.86l1.22-31.42c0.67-0.1,1.21-0.64,1.24-1.34
				c0.01-0.22-0.04-0.43-0.13-0.63l9.35-5.98c0.35,0.46,0.82,0.82,1.36,1.04l-11.94,38.51
				C322.56,193.95,322.19,193.89,321.83,193.86z M332.84,152.43c-0.02,0.59,0.12,1.14,0.38,1.62l-9.36,5.98
				c-0.19-0.19-0.44-0.31-0.71-0.37l0.59-15.18c0.29-0.04,0.56-0.14,0.76-0.33l8.84,6.67C333.06,151.29,332.86,151.84,332.84,152.43
				z M322.57,142.03l-13.54-10.22c0.1-0.19,0.17-0.39,0.18-0.62c0.02-0.45-0.19-0.85-0.51-1.13l11.97-18.72
				c0.69,0.42,1.42,0.78,2.22,1c0.52,0.14,1.04,0.23,1.57,0.27l-1.13,29.07C323.04,141.73,322.78,141.84,322.57,142.03z
				 M323.16,111.32c-0.68-0.18-1.32-0.49-1.93-0.86l2.31-3.61c0.35,0.18,0.73,0.3,1.12,0.35l-0.17,4.36
				C324.05,111.52,323.6,111.44,323.16,111.32z M325.2,107.21c0.11,0,0.21-0.02,0.31-0.03l0.97,4.26c-0.48,0.09-0.97,0.13-1.45,0.12
				L325.2,107.21z M322.48,102.06l-3.64-2.29c0.27-0.4,0.57-0.77,0.91-1.12l2.93,3.17C322.62,101.9,322.55,101.98,322.48,102.06z
				 M322.2,102.5c-0.18,0.35-0.3,0.73-0.35,1.13l-4.28-0.14c0.08-1.16,0.4-2.28,0.98-3.28L322.2,102.5z M316.53,103.46l-22.2-0.72
				c-0.05-0.42-0.25-0.82-0.64-1.07c-0.2-0.12-0.41-0.18-0.63-0.2l-0.77-16.91c0.28-0.06,0.53-0.22,0.73-0.44l24.65,15.54
				c-0.32,0.56-0.6,1.14-0.79,1.77C316.67,102.08,316.57,102.77,316.53,103.46z M275.39,73.88l-15.62,6.62
				c-0.11-0.18-0.25-0.35-0.45-0.47c-0.38-0.24-0.83-0.26-1.23-0.13L246.8,58.14c0.41-0.23,0.8-0.5,1.15-0.83
				c0.34-0.32,0.63-0.67,0.89-1.05l26.62,16.78C275.36,73.32,275.32,73.6,275.39,73.88z M246.56,57.67l-1.16-2.23
				c0.33-0.21,0.63-0.48,0.87-0.8l2.13,1.34C247.92,56.67,247.29,57.25,246.56,57.67z M240.73,53.97l-2.23,1.18
				c-0.14-0.29-0.25-0.6-0.34-0.91l2.46-0.56C240.65,53.77,240.69,53.87,240.73,53.97z M238.27,55.85c0.47,0.81,1.1,1.51,1.88,2.04
				l-12.93,20.8c-0.39-0.17-0.84-0.19-1.25,0.02c-0.2,0.11-0.36,0.26-0.48,0.44l-15.03-7.79c0.09-0.27,0.07-0.57-0.02-0.85
				L238.27,55.85z M192.09,80.18c0.19,0.23,0.42,0.41,0.7,0.49L190.7,97.5c-0.22,0-0.43,0.04-0.64,0.15c-0.4,0.21-0.64,0.59-0.72,1
				l-22.03-1c0.01-0.69-0.03-1.38-0.19-2.07c-0.15-0.67-0.4-1.3-0.69-1.9L192.09,80.18z M166.26,97.61l-4.45-0.2
				c-0.01-0.4-0.1-0.78-0.26-1.15l3.94-2.08C166.01,95.25,166.27,96.42,166.26,97.61z M161.3,95.8c-0.06-0.09-0.12-0.17-0.18-0.26
				l3.26-3.02c0.33,0.38,0.61,0.78,0.86,1.2L161.3,95.8z M157.89,100.66c0.1,0.02,0.21,0.04,0.31,0.06l-0.17,4.36
				c-0.45-0.04-0.9-0.11-1.34-0.22c-0.03-0.01-0.06-0.02-0.09-0.03L157.89,100.66z M158.72,100.75c0.4-0.02,0.78-0.1,1.15-0.26
				l2.07,3.87c-1.06,0.5-2.21,0.76-3.39,0.74L158.72,100.75z M162.44,105.29l10.42,19.49c-0.34,0.25-0.59,0.63-0.61,1.09
				c-0.01,0.24,0.05,0.45,0.15,0.65l-14.26,9.12c-0.19-0.22-0.46-0.35-0.76-0.42l1.13-29.07
				C159.89,106.17,161.23,105.88,162.44,105.29z M157.33,155.61l13.54,10.22c-0.1,0.19-0.17,0.39-0.18,0.62
				c-0.02,0.45,0.19,0.85,0.51,1.13l-13.21,20.67c-0.47-0.28-0.97-0.51-1.51-0.66c-0.37-0.1-0.75-0.16-1.13-0.19l1.22-31.43
				C156.86,155.9,157.13,155.8,157.33,155.61z M156.35,188.09c0.48,0.13,0.93,0.34,1.36,0.59l-1.35,2.11
				c-0.35-0.18-0.73-0.3-1.12-0.35l0.1-2.52C155.68,187.94,156.02,188,156.35,188.09z M154.71,190.42c-0.11,0-0.21,0.02-0.31,0.03
				l-0.56-2.45c0.32-0.06,0.64-0.09,0.97-0.09L154.71,190.42z M157.42,195.57l2.12,1.34c-0.18,0.27-0.39,0.51-0.62,0.75l-1.71-1.84
				C157.29,195.73,157.36,195.65,157.42,195.57z M157.71,195.13c0.18-0.35,0.3-0.73,0.35-1.12l2.51,0.08
				c-0.07,0.84-0.31,1.65-0.73,2.39L157.71,195.13z M161.09,194.1l24.5,0.8c0.05,0.42,0.25,0.82,0.64,1.07
				c0.2,0.12,0.41,0.18,0.63,0.2l0.77,16.91c-0.28,0.06-0.53,0.22-0.73,0.44l-26.61-16.77C160.74,195.94,161.02,195.04,161.09,194.1
				z M204.52,223.76l15.62-6.62c0.11,0.18,0.25,0.35,0.45,0.47c0.38,0.24,0.83,0.26,1.23,0.13l10.2,19.67
				c-0.56,0.32-1.11,0.69-1.6,1.15c-0.51,0.48-0.94,1.02-1.32,1.59l-24.66-15.55C204.55,224.32,204.59,224.03,204.52,223.76z
				 M232.5,238.34l2,3.86c-0.33,0.21-0.63,0.48-0.86,0.8l-3.64-2.3C230.64,239.73,231.49,238.92,232.5,238.34z M239.18,243.67
				l3.96-2.09c0.22,0.44,0.38,0.91,0.51,1.39l-4.36,0.99C239.25,243.86,239.22,243.76,239.18,243.67z M243.82,240.63
				c-0.68-1.19-1.62-2.21-2.78-2.96l11.64-18.72c0.39,0.17,0.84,0.19,1.25-0.02c0.2-0.11,0.36-0.26,0.48-0.44l15.03,7.79
				c-0.09,0.27-0.07,0.57,0.02,0.85L243.82,240.63z M287.82,217.46c-0.19-0.23-0.42-0.41-0.69-0.49l2.08-16.84
				c0.22,0,0.43-0.04,0.64-0.15c0.4-0.21,0.64-0.59,0.72-1l24.5,1.11c0,0.94,0.2,1.86,0.6,2.7L287.82,217.46z M315.59,200.11
				l2.51,0.11c0.01,0.4,0.1,0.78,0.26,1.15l-2.23,1.17C315.77,201.79,315.59,200.96,315.59,200.11z M318.61,201.84
				c0.06,0.09,0.12,0.17,0.18,0.26l-1.84,1.7c-0.21-0.25-0.4-0.51-0.56-0.79L318.61,201.84z M335.1,149.48
				c-0.56,0.18-1.05,0.5-1.43,0.93l-8.84-6.67c0.09-0.18,0.16-0.38,0.17-0.6c0.03-0.71-0.47-1.29-1.14-1.44l1.13-29.09
				c0.58,0.01,1.15-0.04,1.72-0.14L335.1,149.48z M321.6,97.24c1.77-0.93,3.74-1.1,5.53-0.61c1.97,0.53,3.72,1.85,4.75,3.8
				c1.96,3.72,0.53,8.32-3.19,10.28c-0.55,0.29-1.12,0.48-1.7,0.63l-0.97-4.26c0.18-0.06,0.36-0.13,0.54-0.22
				c1.58-0.83,2.18-2.78,1.35-4.36c-0.83-1.58-2.78-2.18-4.36-1.35c-0.17,0.09-0.33,0.2-0.48,0.32l-2.94-3.18
				C320.57,97.89,321.05,97.53,321.6,97.24z M319.04,97.88c-0.41,0.41-0.77,0.85-1.09,1.33L293.3,83.67
				c0.25-0.63,0.05-1.37-0.54-1.74c-0.19-0.12-0.39-0.18-0.6-0.2l-0.5-11.08c0.57-0.07,1.11-0.29,1.57-0.66L319.04,97.88z
				 M288.11,66.75c-0.13,0.57-0.09,1.16,0.09,1.7L278,72.78c-0.11-0.18-0.25-0.33-0.44-0.45c-0.6-0.38-1.36-0.24-1.82,0.27
				l-26.63-16.78c0.19-0.32,0.34-0.66,0.46-1.01L288.11,66.75z M237.95,52.48c0.12-3.17,2.8-5.65,5.97-5.52
				c0.44,0.02,0.87,0.08,1.28,0.19c2.53,0.68,4.35,3.04,4.24,5.77c-0.02,0.42-0.08,0.83-0.19,1.23l-2.41-0.75
				c0.04-0.19,0.07-0.38,0.08-0.57c0.07-1.78-1.32-3.28-3.1-3.35c-1.78-0.07-3.28,1.32-3.35,3.1c-0.01,0.2,0.01,0.39,0.04,0.58
				l-2.45,0.56C237.97,53.31,237.93,52.9,237.95,52.48z M237.64,54.34c0.1,0.36,0.22,0.71,0.38,1.05L210.2,70.04
				c-0.42-0.53-1.16-0.73-1.78-0.4c-0.19,0.1-0.35,0.25-0.47,0.41l-9.85-5.11c0.22-0.53,0.3-1.11,0.22-1.69L237.64,54.34z
				 M192.96,66.08c0.44,0.4,0.96,0.66,1.53,0.78l-1.36,10.99c-0.21,0.01-0.42,0.05-0.62,0.15c-0.63,0.33-0.88,1.06-0.67,1.71
				l-25.67,13.52c-0.29-0.51-0.63-0.99-1.02-1.43L192.96,66.08z M154.61,103.94c-3.56-2.24-4.62-6.94-2.38-10.5
				c1.83-2.9,5.28-4.14,8.42-3.29c0.72,0.19,1.42,0.5,2.08,0.91c0.49,0.31,0.92,0.67,1.31,1.06l-3.27,3.03
				c-0.14-0.13-0.29-0.25-0.46-0.36c-1.51-0.95-3.5-0.5-4.45,1.01c-0.95,1.51-0.5,3.5,1.01,4.45c0.17,0.11,0.34,0.19,0.52,0.26
				l-1.28,4.13C155.59,104.46,155.09,104.24,154.61,103.94z M156.42,105.87c0.52,0.14,1.05,0.22,1.57,0.26l-1.13,29.06
				c-0.67,0.1-1.21,0.64-1.24,1.34c-0.01,0.23,0.05,0.44,0.13,0.63l-9.35,5.98c-0.35-0.46-0.82-0.83-1.36-1.05l11.25-36.27
				C156.33,105.84,156.37,105.86,156.42,105.87z M144.81,148.15c0.56-0.18,1.04-0.5,1.43-0.92l8.84,6.67
				c-0.09,0.18-0.16,0.38-0.17,0.6c-0.03,0.71,0.47,1.29,1.14,1.44l-1.22,31.45c-0.37,0-0.74,0.03-1.1,0.1L144.81,148.15z
				 M157.53,198.72c-1.34,0.7-2.83,0.83-4.18,0.46c-1.49-0.4-2.81-1.4-3.59-2.87c-1.48-2.81-0.4-6.29,2.41-7.77
				c0.38-0.2,0.76-0.34,1.16-0.45l0.56,2.46c-0.18,0.06-0.36,0.13-0.54,0.22c-1.58,0.83-2.18,2.78-1.35,4.36
				c0.83,1.58,2.78,2.18,4.36,1.35c0.17-0.09,0.33-0.2,0.48-0.32l1.72,1.85C158.24,198.29,157.9,198.53,157.53,198.72z
				 M159.28,198.04c0.26-0.27,0.5-0.55,0.71-0.85l26.62,16.78c-0.25,0.63-0.05,1.37,0.54,1.74c0.19,0.12,0.39,0.18,0.6,0.2
				l0.5,11.08c-0.57,0.07-1.11,0.29-1.57,0.66L159.28,198.04z M191.8,230.88c0.13-0.57,0.09-1.16-0.09-1.7l10.2-4.32
				c0.11,0.17,0.25,0.33,0.44,0.45c0.6,0.38,1.36,0.24,1.82-0.27l24.67,15.55c-0.29,0.5-0.52,1.01-0.71,1.56L191.8,230.88z
				 M243.91,245.21c-0.16,4.2-3.7,7.47-7.9,7.31c-0.59-0.02-1.15-0.11-1.7-0.26c-3.35-0.9-5.75-4.03-5.61-7.64
				c0.02-0.57,0.12-1.13,0.26-1.66l4.11,1.27c-0.04,0.19-0.07,0.38-0.08,0.57c-0.07,1.78,1.32,3.28,3.1,3.35s3.28-1.32,3.35-3.1
				c0.01-0.2-0.01-0.39-0.04-0.58l4.35-0.99C243.86,244.05,243.93,244.62,243.91,245.21z M244.67,242.74
				c-0.15-0.57-0.33-1.13-0.59-1.66l25.62-13.49c0.42,0.53,1.16,0.73,1.78,0.4c0.19-0.1,0.35-0.25,0.47-0.41l9.85,5.11
				c-0.22,0.53-0.3,1.11-0.22,1.69L244.67,242.74z M286.95,231.55c-0.44-0.4-0.96-0.66-1.53-0.78l1.36-10.99
				c0.21-0.01,0.42-0.05,0.62-0.15c0.63-0.33,0.88-1.06,0.67-1.71l27.85-14.67c0.18,0.32,0.4,0.62,0.64,0.9L286.95,231.55z
				 M326.19,203.18c-1.38,2.19-3.99,3.13-6.36,2.49c-0.54-0.15-1.07-0.37-1.57-0.69c-0.36-0.23-0.68-0.49-0.97-0.77l1.85-1.72
				c0.14,0.13,0.29,0.25,0.46,0.36c1.51,0.95,3.5,0.5,4.45-1.01c0.95-1.51,0.5-3.5-1.01-4.45c-0.17-0.11-0.34-0.19-0.52-0.26
				l0.75-2.4c0.38,0.14,0.76,0.3,1.12,0.53C327.07,196.94,327.88,200.49,326.19,203.18z"/>
		</g>
	</g>
	<g class="st7">
		<path d="M439.14,74.41c44.49,0,76.67,31.75,76.67,75.57c0,43.84-32.2,75.6-76.67,75.6h-50.41V74.41H439.14L439.14,74.41z
			 M496.46,149.99c0-33.45-24.01-57.81-57.92-57.81h-30.87v115.65h30.87C472.44,207.83,496.46,183.44,496.46,149.99z"/>
	</g>
	<g class="st7">
		<polygon class="st5" points="674.12,74.41 674.12,202.4 686.69,202.4 686.69,225.59 693.07,225.59 693.07,74.41 		"/>
	</g>
	<g class="st7">
		<path class="st5" d="M546.03,74.41h-17.69l-15.79,38.6c4.46,8.43,7.33,17.96,8.38,28.29l16.53-40.8l29.49,71.51h-48.53
			c-1.72,6.22-4.21,12.02-7.32,17.37h62.97l15,36.21h20.54L546.03,74.41z"/>
	</g>
	<g class="st7">
		<polygon points="615.16,207.83 615.16,74.41 596.21,74.41 596.21,178.7 615.93,225.59 681.58,225.59 681.58,207.83 		"/>
	</g>
	<g class="st7">
		<path d="M209.84,176.7c0,28.5-21.47,48.88-51.26,48.88c-30.17,0-51.65-20.41-51.65-48.88c0-13.75,5.65-29.84,15.79-47.78
			l28.76-50.88h19.56c-20,35.57-26.36,46.94-31.09,56.33c6.71-3.16,13.91-4.75,21-4.75C186.58,129.62,209.84,148.25,209.84,176.7z
			 M191.87,176.7c0-18.69-14.09-31.89-33.49-31.89s-33.49,13.39-33.49,31.89c0,18.29,14.1,31.91,33.49,31.91
			S191.87,195.2,191.87,176.7z"/>
	</g>
	<g class="st7">
		<path d="M323.49,148.03c-0.13,6.19-0.86,12.11-2.06,17.77h61.33v-17.77H323.49z"/>
	</g>
</g>
</svg>
